<svg xmlns="http://www.w3.org/2000/svg" viewBox="0 0 1014 217.49"><defs><style>.cls-1{fill:#fff;}</style></defs><g id="Enwys_in_E_MS_weiß" data-name="Enwys_in_E&amp;MS_weiß"><g id="ENWYS-2" data-name="ENWYS"><g id="S"><path class="cls-1" d="M884.53,70a36.4,36.4,0,0,1-2-12.61q0-14.65,13.6-24t36-9.31a122.51,122.51,0,0,1,40,6.7q19.51,6.69,31.5,16.84h2v-33a185.65,185.65,0,0,0-32.7-10.43A181.85,181.85,0,0,0,932.25,0Q898,0,875.73,16.84T853.46,60a69,69,0,0,0,.7,9.94Z"/><path class="cls-1" d="M981.46,141.52q3.49,6.24,3.5,16.2,0,16.22-14.44,25.94t-40.39,9.72q-18.32,0-39.18-7.18a116.23,116.23,0,0,1-36.79-20.44h-2v35a206.44,206.44,0,0,0,36.86,12.55,179.86,179.86,0,0,0,40.8,4.23q21.15,0,36.16-5.08a85.54,85.54,0,0,0,26.28-14.09,57.64,57.64,0,0,0,16-20.3,55.81,55.81,0,0,0,5.71-24.24,70.74,70.74,0,0,0-1-12.26Z"/></g><g id="Y"><rect class="cls-1" x="730.69" y="141.52" width="27.91" height="72.16"/><polygon class="cls-1" points="790.98 69.98 832.46 3.81 802.72 3.81 761.88 69.98 790.98 69.98"/><polygon class="cls-1" points="727.86 69.98 687.42 3.81 656.55 3.81 697.16 69.98 727.86 69.98"/></g><g id="W"><polygon class="cls-1" points="625.54 69.98 642.74 3.81 615.39 3.81 598.93 69.98 625.54 69.98"/><polygon class="cls-1" points="505.08 69.98 512.64 39.47 520.37 69.98 544.18 69.98 527.72 3.81 499.39 3.81 482.93 69.98 505.08 69.98"/><polygon class="cls-1" points="581.13 141.52 571.56 179.99 561.98 141.52 538.48 141.52 556.76 213.68 588.19 213.68 606.94 141.52 581.13 141.52"/><polygon class="cls-1" points="428.59 69.98 411.86 3.81 383.25 3.81 400.75 69.98 428.59 69.98"/><polygon class="cls-1" points="465.13 141.52 455.98 178.3 446.68 141.52 419.69 141.52 438.78 213.68 469.51 213.68 487.37 141.52 465.13 141.52"/></g><g id="N"><polygon class="cls-1" points="208.61 69.98 208.61 25.93 231.95 69.98 260.85 69.98 225.8 3.81 182.53 3.81 182.53 69.98 208.61 69.98"/><rect class="cls-1" x="316.58" y="3.81" width="26.08" height="66.17"/><rect class="cls-1" x="182.53" y="141.52" width="26.08" height="72.16"/><polygon class="cls-1" points="316.57 141.52 316.57 175.2 298.74 141.52 269.87 141.52 308.12 213.68 342.65 213.68 342.65 141.52 316.57 141.52"/></g><g id="E"><polyline class="cls-1" points="0 213.68 138.27 213.68 138.27 188.87 0.01 188.87"/><polyline class="cls-1" points="0 110.93 95.31 110.93 95.31 86.12 0.01 86.12"/><rect class="cls-1" y="3.81" width="138.27" height="24.81"/></g></g><g id="E_MS" data-name="E&amp;MS"><path class="cls-1" d="M214.17,129.32H183V82.06h31.14v5.59H189.32V100.6h24.85v5.58H189.32v17.56h24.85Z"/><path class="cls-1" d="M254.32,93.87,240,129.32h-6L219.72,93.87h6.48l11,28.21,10.89-28.21Z"/><path class="cls-1" d="M291.23,112.21H265.11a15.25,15.25,0,0,0,1,5.7,10.57,10.57,0,0,0,6.62,6.27,15.56,15.56,0,0,0,5,.76A19.78,19.78,0,0,0,285,123.5a17.72,17.72,0,0,0,5.22-2.84h.32v6.5a48.21,48.21,0,0,1-6.16,2.13,25,25,0,0,1-6.6.86q-8.82,0-13.77-4.78t-4.95-13.57q0-8.7,4.74-13.8a16.25,16.25,0,0,1,12.49-5.11q7.17,0,11.06,4.19t3.89,11.9Zm-5.81-4.57q0-4.69-2.36-7.26c-1.56-1.72-3.92-2.57-7.1-2.57a10.35,10.35,0,0,0-7.63,2.82,11,11,0,0,0-3.22,7Z"/><path class="cls-1" d="M329.92,129.32h-6V109.14a34.93,34.93,0,0,0-.28-4.59,8.37,8.37,0,0,0-1.05-3.35,4.78,4.78,0,0,0-2.29-2,9.63,9.63,0,0,0-3.87-.65,12.45,12.45,0,0,0-5.11,1.2,26.2,26.2,0,0,0-5.11,3.08v26.47h-6V93.87h6v3.94A23.82,23.82,0,0,1,312,94.19a15.13,15.13,0,0,1,6.12-1.3q5.75,0,8.76,3.46t3,10Z"/><path class="cls-1" d="M359.82,129a32.19,32.19,0,0,1-3.67.73,25.19,25.19,0,0,1-3.54.29q-5.43,0-8.25-2.92t-2.83-9.36V98.88h-4v-5h4V83.68h6V93.87h12.32v5H347.5V115c0,1.86,0,3.32.13,4.36a7,7,0,0,0,.89,2.94,4.26,4.26,0,0,0,1.92,1.86,9.05,9.05,0,0,0,3.73.58,11.43,11.43,0,0,0,3-.43,20.87,20.87,0,0,0,2.29-.71h.32Z"/><path class="cls-1" d="M424.85,100.47v3a33.89,33.89,0,0,1-.8,6.85,25.61,25.61,0,0,1-2.69,7.27l12,11.68h-7.8l-7.27-7.11a22,22,0,0,1-7.46,6.3,18.15,18.15,0,0,1-7.84,1.8,16,16,0,0,1-11-3.86,12.87,12.87,0,0,1-4.36-10.11,14,14,0,0,1,.83-5,17,17,0,0,1,1.93-3.68,15.53,15.53,0,0,1,2.76-2.81,28.88,28.88,0,0,1,3.34-2.3,17.08,17.08,0,0,1-5-4.6,10.3,10.3,0,0,1-1.54-5.84,10,10,0,0,1,.84-4,10.63,10.63,0,0,1,2.52-3.5A11.94,11.94,0,0,1,397.44,82a16.16,16.16,0,0,1,5.64-1A13.52,13.52,0,0,1,412,83.86a8.68,8.68,0,0,1,3.4,7A15.27,15.27,0,0,1,415,94a9.37,9.37,0,0,1-1.3,3.16,12.43,12.43,0,0,1-2.89,3,17.21,17.21,0,0,1-4.86,2.44l11.78,11.49a15,15,0,0,0,.66-2.79,25,25,0,0,0,.26-3.18c0-1.18.06-2.51,0-4s0-2.69,0-3.71Zm-9.56,18.85-15.17-14.79a10.53,10.53,0,0,0-3.93,3.37,10.89,10.89,0,0,0-1.46,3,12.66,12.66,0,0,0-.57,3.94,10.35,10.35,0,0,0,2.71,7.47c1.81,1.9,4.38,2.84,7.7,2.84a13,13,0,0,0,5.85-1.44A12.54,12.54,0,0,0,415.29,119.32Zm-6.15-27.8A6.5,6.5,0,0,0,398,87a6.68,6.68,0,0,0-1.84,4.77A7.31,7.31,0,0,0,397.41,96q1.26,1.83,5.41,4.34a9.78,9.78,0,0,0,4.72-3.25A9.11,9.11,0,0,0,409.14,91.52Z"/><path class="cls-1" d="M502.51,129.32h-6.28V88.6l-13.14,27.71h-3.75l-13-27.71v40.72h-5.87V82.06H469l12.6,26.31,12.18-26.31h8.73Z"/><path class="cls-1" d="M544.41,112.21H518.29a15.05,15.05,0,0,0,1,5.7,10.48,10.48,0,0,0,2.7,4,10.65,10.65,0,0,0,3.92,2.29,15.56,15.56,0,0,0,5,.76,19.78,19.78,0,0,0,7.28-1.44,18,18,0,0,0,5.22-2.84h.32v6.5a48.21,48.21,0,0,1-6.16,2.13,25,25,0,0,1-6.6.86q-8.82,0-13.78-4.78t-4.95-13.57q0-8.7,4.75-13.8t12.49-5.11q7.17,0,11.06,4.19t3.89,11.9Zm-5.81-4.57q0-4.69-2.37-7.26c-1.55-1.72-3.92-2.57-7.09-2.57a10.35,10.35,0,0,0-7.63,2.82,10.91,10.91,0,0,0-3.22,7Z"/><path class="cls-1" d="M582.21,129.32h-6v-3.71a21.72,21.72,0,0,1-5.36,3.46,14.94,14.94,0,0,1-6.07,1.24,12,12,0,0,1-10.07-4.89Q551,120.53,551,111.87a23.45,23.45,0,0,1,1.28-8,18.57,18.57,0,0,1,3.48-6,14.72,14.72,0,0,1,11-5,19,19,0,0,1,5,.58,22.71,22.71,0,0,1,4.54,1.83V79.94h6Zm-6-8.73V100.25a22.06,22.06,0,0,0-4.32-1.49,19.25,19.25,0,0,0-4.15-.42,9.43,9.43,0,0,0-7.81,3.5q-2.79,3.48-2.79,9.9c0,4.21.71,7.41,2.15,9.6s3.75,3.28,6.92,3.28a12.86,12.86,0,0,0,5.14-1.12A21.45,21.45,0,0,0,576.24,120.59Z"/><path class="cls-1" d="M600.36,87.93h-6.73V81.75h6.73ZM600,129.32h-6V93.87h6Z"/><path class="cls-1" d="M639.33,129.32H633.4v-3.78c-.53.36-1.24.87-2.14,1.51a14.85,14.85,0,0,1-2.62,1.54,17.18,17.18,0,0,1-3.43,1.22,18.42,18.42,0,0,1-4.54.5,11.33,11.33,0,0,1-8.12-3.18,10.68,10.68,0,0,1-3.33-8.09,11.15,11.15,0,0,1,1.73-6.52,11.49,11.49,0,0,1,4.93-3.92,26.43,26.43,0,0,1,7.78-1.94q4.53-.51,9.74-.76V105a7.16,7.16,0,0,0-.71-3.37,5.28,5.28,0,0,0-2.05-2.09,8.24,8.24,0,0,0-3-1,26,26,0,0,0-3.71-.26,25.42,25.42,0,0,0-5.24.62,41.23,41.23,0,0,0-6,1.79h-.31V94.63q1.74-.48,5-1a38.2,38.2,0,0,1,6.51-.57,30.38,30.38,0,0,1,6.52.62,12.69,12.69,0,0,1,4.81,2.11,9.43,9.43,0,0,1,3,3.78,13.89,13.89,0,0,1,1,5.74Zm-5.93-8.73v-9.87q-2.73.16-6.43.48a33.32,33.32,0,0,0-5.85.92,9.6,9.6,0,0,0-4.16,2.27,6.54,6.54,0,0,0,.25,8.82q1.85,1.55,5.62,1.54a13.44,13.44,0,0,0,5.75-1.22A25.87,25.87,0,0,0,633.4,120.59Z"/><path class="cls-1" d="M708.49,115.83a12.68,12.68,0,0,1-1.28,5.46,13.06,13.06,0,0,1-3.6,4.57,19.43,19.43,0,0,1-5.92,3.18,25.68,25.68,0,0,1-8.15,1.14,40.79,40.79,0,0,1-9.18-1,46.82,46.82,0,0,1-8.3-2.83v-7.87h.44a26,26,0,0,0,8.29,4.6,27.1,27.1,0,0,0,8.82,1.62q5.83,0,9.09-2.19a6.74,6.74,0,0,0,3.26-5.84,6.21,6.21,0,0,0-1.54-4.63,10.44,10.44,0,0,0-4.69-2.32,48.16,48.16,0,0,0-5.15-1c-1.85-.27-3.82-.62-5.89-1q-6.29-1.34-9.32-4.56a12.43,12.43,0,0,1,2-18.12q5-3.8,12.72-3.79a40.75,40.75,0,0,1,9.15,1,41.67,41.67,0,0,1,7.36,2.35v7.42h-.45a21.9,21.9,0,0,0-7.09-3.79,27.69,27.69,0,0,0-9-1.51,14.12,14.12,0,0,0-8.11,2.1,6.29,6.29,0,0,0-3.06,5.39,6.68,6.68,0,0,0,1.52,4.64q1.53,1.68,5.37,2.57c1.35.29,3.28.65,5.77,1.08s4.62.85,6.35,1.3a16.51,16.51,0,0,1,7.94,4.22C707.6,109.81,708.49,112.45,708.49,115.83Z"/><path class="cls-1" d="M748.32,111.61q0,8.67-4.44,13.68a15.12,15.12,0,0,1-11.9,5q-7.53,0-12-5t-4.43-13.68q0-8.67,4.43-13.69t12-5q7.46,0,11.9,5T748.32,111.61Zm-6.15,0q0-6.89-2.7-10.23a10.1,10.1,0,0,0-15,0q-2.69,3.34-2.68,10.23,0,6.66,2.7,10.11a9.91,9.91,0,0,0,15,0Q742.17,118.35,742.17,111.61Z"/><path class="cls-1" d="M763.59,129.32h-6V79.94h6Z"/><path class="cls-1" d="M804.79,129.32h-6v-3.93A29.59,29.59,0,0,1,793,129a14.5,14.5,0,0,1-6.09,1.27q-5.58,0-8.7-3.42t-3.11-10v-23h6v20.19a35.8,35.8,0,0,0,.25,4.61,8.46,8.46,0,0,0,1.08,3.29,5.09,5.09,0,0,0,2.22,2,9.83,9.83,0,0,0,4,.63,12.71,12.71,0,0,0,5.06-1.2,23.93,23.93,0,0,0,5.13-3.08V93.87h6Z"/><path class="cls-1" d="M834.94,129a31.76,31.76,0,0,1-3.67.73,25.19,25.19,0,0,1-3.54.29c-3.61,0-6.37-1-8.25-2.92s-2.82-5.07-2.82-9.36V98.88h-4v-5h4V83.68h6V93.87h12.32v5H822.62V115c0,1.86,0,3.32.13,4.36a7,7,0,0,0,.89,2.94,4.26,4.26,0,0,0,1.92,1.86,9.05,9.05,0,0,0,3.73.58,11.56,11.56,0,0,0,3.05-.43,20.53,20.53,0,0,0,2.28-.71h.32Z"/><path class="cls-1" d="M848.55,87.93h-6.72V81.75h6.72Zm-.38,41.39h-6V93.87h6Z"/><path class="cls-1" d="M890.19,111.61q0,8.67-4.44,13.68a15.12,15.12,0,0,1-11.9,5q-7.53,0-12-5t-4.43-13.68q0-8.67,4.43-13.69t12-5q7.46,0,11.9,5T890.19,111.61Zm-6.15,0q0-6.89-2.7-10.23a10.1,10.1,0,0,0-15,0q-2.68,3.34-2.68,10.23,0,6.66,2.7,10.11a9.91,9.91,0,0,0,15,0Q884,118.35,884,111.61Z"/><path class="cls-1" d="M929.07,129.32h-6V109.14a34.87,34.87,0,0,0-.29-4.59,8.37,8.37,0,0,0-1.05-3.35,4.81,4.81,0,0,0-2.28-2,9.7,9.7,0,0,0-3.87-.65,12.41,12.41,0,0,0-5.11,1.2,26.2,26.2,0,0,0-5.11,3.08v26.47h-6V93.87h6v3.94a23.77,23.77,0,0,1,5.77-3.62,15.14,15.14,0,0,1,6.13-1.3q5.75,0,8.76,3.46t3,10Z"/><path class="cls-1" d="M965.89,119.1a9.66,9.66,0,0,1-4,8q-4,3.1-11,3.11a26.07,26.07,0,0,1-7.22-.94,31.06,31.06,0,0,1-5.51-2.05V120.5h.32a24,24,0,0,0,6.28,3.38,19.62,19.62,0,0,0,6.64,1.25,12.41,12.41,0,0,0,6.15-1.27,4.28,4.28,0,0,0,2.23-4,4.06,4.06,0,0,0-1.21-3.17,10.88,10.88,0,0,0-4.63-1.84c-.85-.19-2-.41-3.32-.67s-2.61-.53-3.73-.82q-4.67-1.24-6.62-3.64a9,9,0,0,1-1.95-5.88,9.55,9.55,0,0,1,.91-4.13A9.93,9.93,0,0,1,942,96.25a13.13,13.13,0,0,1,4.52-2.36,20,20,0,0,1,6.14-.88,27.5,27.5,0,0,1,6.43.78,24.34,24.34,0,0,1,5.41,1.89v6.38h-.32a21.22,21.22,0,0,0-5.55-2.84,19.2,19.2,0,0,0-6.41-1.16,11.26,11.26,0,0,0-5.52,1.25,4.39,4.39,0,0,0-.89,7,10.61,10.61,0,0,0,4.32,1.81c1.09.26,2.33.51,3.69.76s2.5.49,3.41.7a12.74,12.74,0,0,1,6.42,3.27A8.62,8.62,0,0,1,965.89,119.1Z"/></g></g></svg>